<svg xmlns="http://www.w3.org/2000/svg" xmlns:xlink="http://www.w3.org/1999/xlink" id="Layer_1" x="0px" y="0px" viewBox="0 0 495.2 438.2" style="enable-background:new 0 0 495.2 438.2;" xml:space="preserve"><style type="text/css">	.st0{fill:#FFFFFF;}</style><g>	<g>		<path class="st0" d="M427.2,101.8l-4.4,0.4c-0.2-2.1-0.5-4.2-0.5-6.3c0-1.1-0.3-1.3-1.4-1.2c-6.2,0.6-12.4,1.1-18.6,1.6    c-0.2,0-0.5,0-0.8,0c-0.2-1.6-0.3-3.2-0.5-5l20.7-1.8c-0.2-2.2-0.3-4.3-0.6-6.4c-0.1-0.9,0.1-1.4,1.1-1.3c0.7,0,1.3-0.1,2-0.2    c1-0.2,1.2,0.2,1.3,1.1c0.5,5.9,1,11.7,1.5,17.5c0.1,0.4,0.1,0.8,0.2,1.1L427.2,101.8z"></path>		<path class="st0" d="M158,175.6h1.8c59.1,0,118.3-0.2,177.5,0.1c20.6,0.1,36,10.2,45.9,28.2c4,7.4,5.9,15.7,5.8,24.1    c0,69.4,0,138.8,0,208.2c0,2.5,0.1,2-2,2.1c-6.7,0-13.4,0-20,0h-1.5v-50.2l-0.3-0.1c-19.2,26.6-44.7,43.4-77.2,48.3    s-62.1-2.8-88-23.1s-40.2-47.2-43.8-80c-13.1,24.7-32.9,40.1-60.7,43.7s-50.9-6.2-69.9-27v88.2H0.1v-1.3c0-64.3,0-128.6,0-192.8    c0-0.8,0.3-1.5,0.9-2c7.4-6.4,14.8-12.9,22.1-19.4l1.7-1.5c-0.4-0.2-0.8-0.5-1.2-0.7c-7.5-6.6-15-13.2-22.6-19.8    c-0.7-0.5-1-1.3-1-2.1C0,133.1,0,67.6,0,2V0.7h25.4v95.5C39.6,80.1,57,70.6,78.1,68.7s40,3.9,56.5,17.2    c13,10.4,22.3,24.7,26.4,40.9C165.3,143.3,164.2,159.5,158,175.6z M270.4,413.4c50,0.1,90.6-40.4,90.6-90.4    c0.1-50-40.4-90.6-90.4-90.6c-50-0.1-90.6,40.4-90.6,90.4v0.1C180.1,373.1,220.8,413.1,270.4,413.4z M139.2,146.8    c0.1-29.8-23.9-54-53.7-54.1s-54,23.9-54.1,53.7c-0.1,29.2,23.1,53.2,52.3,54C114.4,201.1,138.7,177.4,139.2,146.8z M139.2,299.4    c0.1-29.8-24-53.9-53.8-54s-53.9,24-54,53.8c-0.1,29.3,23.3,53.3,52.6,54c29.9,0.6,54.5-23.1,55.1-53    C139.2,300,139.2,299.7,139.2,299.4z M162.3,284.2c10.3-27.3,28-48.3,53.6-62.3s53-17.5,81.3-10.7s50.8,22.7,67.9,46.6    c0-0.8,0.1-1.2,0.1-1.6c0-9.5,0-19,0-28.4c0-1.5-0.1-2.9-0.3-4.4c-1.9-13.6-13.5-23.8-27.3-23.9c-56.3,0-112.6,0-168.9,0    c-0.9,0.1-1.7-0.3-2.2-1.1c-3.6-4.9-7.2-9.7-10.9-14.5c-0.3-0.4-0.6-0.7-1-1.1c-5.3,10-12.7,18.8-21.6,25.8    c-9,6.9-19.3,11.8-30.3,14.3C134.5,231.7,154.3,252.1,162.3,284.2z M25.5,196.9V249c11-12.9,25.8-22,42.3-26    C51.3,219,36.5,209.9,25.5,196.9z"></path>		<path class="st0" d="M35.5,37.3h1.7c39.9,0,79.8,0,119.6,0c6.4,0,12.6,2.5,17.2,7c3.3,3.1,5.9,6.8,7.9,10.8    c13.2-14.6,29.5-22.6,49.3-21.9s35.5,9.6,47.7,25c1.3-1.6,2.6-3.2,3.9-4.7c10-10.9,22.2-17.8,36.9-19.8c19.5-2.6,36.5,3,50.8,16.5    c10,9.4,16.4,22,18.1,35.6c0.4,2.9,0.6,5.7,0.6,8.6c0,24.4,0,48.8,0,73.2c0,2,0,2-2,2h-19.1c-1.8,0-1.8,0-1.8-1.8    c0-24.2,0-48.4,0-72.6c0-8.2-2-15.8-6.7-22.6c-6.9-9.7-16.2-15.3-28.1-16.5C312,54.4,294.4,67.8,290.8,87c-0.4,2-0.6,4.1-0.6,6.2    c0,24.9,0,49.8,0,74.8c0,1.6,0,1.6-1.6,1.6h-19.7c-1.7,0-1.7,0-1.7-1.7c0-24.7,0-49.4,0-74.2C267,72.9,250,55.9,229,56    c-17.6,0.1-32.8,12.2-36.8,29.3c-0.7,3.1-1.1,6.2-1.1,9.3c-0.1,24.4-0.1,48.8-0.1,73.2c0,1.6,0,1.6-1.6,1.6c-6.6,0-13.2,0-19.8,0    c-1.2,0-1.5-0.3-1.5-1.5c0-30.2,0-60.3,0-90.5c0-6.1-2.9-10.8-8-14.2c-2.1-1.3-4.6-1.9-7.1-1.8c-31.2,0-62.3,0-93.5,0    c-1.2,0.1-2.3-0.4-3.1-1.3c-6.9-7.5-13.8-15-20.7-22.5C35.6,37.5,35.6,37.4,35.5,37.3z"></path>		<path class="st0" d="M208.7,25.9h-5.1c-1.5-6.8-3-13.6-4.5-20.4H199v20.3h-4.9v-25c2.4,0,4.8,0,7.1,0c0.2,0,0.6,0.7,0.7,1    c1.4,5.8,2.7,11.5,4,17.3c0.1,0.4,0.3,0.8,0.5,1.2c0.2-0.6,0.4-1.2,0.5-1.8c1.2-5.4,2.5-10.9,3.6-16.3c0.2-1,0.6-1.4,1.7-1.4    c2,0.1,3.9,0,6,0v25.1h-4.6V5.5h-0.4C211.8,12.2,210.3,19,208.7,25.9z"></path>		<path class="st0" d="M102.1,20.3c0.2-1,0.5-2,0.7-3c1.2-5.2,2.4-10.4,3.5-15.6c0.2-0.8,0.5-1,1.2-1c2.1,0,4.2,0,6.4,0v25.1h-4.6    V5.6L109,5.5c-0.1,0.3-0.2,0.6-0.3,0.9c-1.4,6.1-2.8,12.3-4.1,18.4c-0.2,0.8-0.5,1.2-1.4,1.2c-1.3-0.1-2.6,0-4,0    c-1.5-6.8-3-13.7-4.5-20.5h-0.2V26c-1.5,0-2.8,0-4.2,0c-0.2,0-0.6-0.4-0.6-0.6c-0.1-0.4-0.1-0.8,0-1.2c0-7.3,0-14.6,0-21.8    c0-1.2,0.3-1.6,1.5-1.5c1.6,0.1,3.3,0.1,4.9,0c0.9,0,1.3,0.3,1.5,1.2c1.3,5.7,2.6,11.3,3.9,17c0.1,0.4,0.2,0.9,0.3,1.3L102.1,20.3    z"></path>		<path class="st0" d="M37.1,25.9v-25c0.4,0,0.8-0.1,1.1-0.1c3.8,0,7.5-0.1,11.3,0.1c1.6,0,3.2,0.4,4.6,1.1c4,2,3.8,8.6,0.5,10.1    c-0.1,0.1-0.2,0.2-0.3,0.3c4.1,3,4.8,7.7,1.7,11.1c-1.5,1.6-3.7,2.5-5.9,2.4C45.7,26,41.5,25.9,37.1,25.9z M45.9,21.7L45.9,21.7    c1.3,0.1,2.6,0,3.8-0.2c2.1-0.4,3-1.8,2.8-3.9c-0.1-1.6-1.3-2.7-3.2-2.8c-2.1-0.1-4.3-0.1-6.5-0.1c-0.6,0-1,0.2-0.9,0.9    c0,1.7,0,3.3,0,5c0,0.7,0.2,1,1,1C44,21.7,45,21.7,45.9,21.7L45.9,21.7z M46.1,5L46.1,5l-1.4,0.1c-2.6,0-2.6,0-2.6,2.6    c0,3,0,3,3,3c1.7,0,3.3-0.1,5-0.3c1.3-0.2,2.2-1.4,2.1-2.7c0-1.3-0.9-2.3-2.2-2.4C48.6,5.1,47.3,5,46.1,5z"></path>		<path class="st0" d="M119.4,25.9v-25c0.5,0,0.9-0.1,1.3-0.1c3.6,0,7.2,0,10.8,0c1,0,1.9,0.1,2.9,0.3c3.4,0.7,5.5,4,4.8,7.3    c-0.1,0.4-0.2,0.8-0.4,1.2c-0.6,1-1.4,2-2.2,2.9c2.9,1.3,3.8,3.9,3.4,7c-0.2,2.7-2.1,5-4.7,5.8c-0.9,0.4-1.9,0.5-2.9,0.6    C128.1,25.9,123.8,25.9,119.4,25.9z M124.4,21.7c1.9,0,3.7,0,5.6,0c0.9,0,1.7-0.1,2.6-0.3c1.5-0.4,2.5-1.8,2.4-3.3    c0.2-1.5-0.9-2.8-2.3-3l0,0c-2.7-0.2-5.5-0.1-8.2-0.1L124.4,21.7z M124.4,10.7c2.2,0,4.3,0,6.4,0c0.6,0,1.2-0.1,1.8-0.3    c1.2-0.3,2-1.5,1.8-2.8c0.1-1.2-0.7-2.2-1.9-2.3h-0.1c-2.2-0.2-4.4-0.1-6.6-0.2c-0.5,0-1,0-1.5,0L124.4,10.7z"></path>		<path class="st0" d="M338.5,25.9c-1.7,0-3.3,0-5,0c-0.3,0-0.7-0.6-0.8-0.9c-0.2-1.4-0.2-2.9-0.3-4.3c0-0.7-0.1-1.3-0.1-2    c-0.2-1.6-1-2.4-2.6-2.5c-2.3-0.1-4.5,0-6.9,0v9.7h-5.1v-25c0.2-0.1,0.3-0.1,0.5-0.1c4.5,0,9-0.1,13.4,0c3.8,0.1,6.9,3.3,6.8,7.1    c0,0.8-0.2,1.5-0.4,2.3c-0.5,1.6-1.2,2.3-3.2,3.6c0,0.1,0,0.2,0,0.2c2.2,1,2.7,3,2.8,5.2c0,0.9,0,1.8,0.1,2.6    c0.1,1.4-0.3,2.8,1.2,3.9L338.5,25.9z M322.8,5.1v6.8c2.5,0,4.9,0.1,7.4,0c1.7,0,3-1.4,3-3.1c0-0.1,0-0.2,0-0.3    c0.1-1.7-1.2-3.2-2.8-3.3C327.8,5,325.4,5.1,322.8,5.1z"></path>		<path class="st0" d="M391.6,41.6c1.1,2.3,0.2,4.1-1.2,5.7c-0.7,0.8-1.5,1.6-2.2,2.4s-1.8,1.8-1.4,3.4l-0.4,0.1    c-1.3-1.2-2.6-2.4-3.9-3.7c-0.1-0.1,0-0.7,0.2-0.9c0.7-1,1.5-2,2.3-2.9c0.5-0.6,1-1.1,1.5-1.7c1.3-1.6,1.3-2.8-0.1-4.2    s-3.1-3-4.8-4.6c-2.3,2.4-4.5,4.8-6.8,7.2l-3.7-3.5l17.2-18.4c1,0.9,2,1.8,2.9,2.7c2.2,2,4.4,4,6.5,6c3.8,3.6,3.8,8.3,0,11.3    C396.1,41.7,394.9,41.9,391.6,41.6z M384.4,32c2,1.8,3.8,3.5,5.7,5.1c1.5,1.2,2.9,0.9,4.2-0.5s1.5-2.9,0.3-4.3    c-1.7-1.8-3.6-3.5-5.5-5.3L384.4,32z"></path>		<path class="st0" d="M412.2,63.8l-16.7,5.7c-0.5-1.5-1-2.9-1.6-4.5l23.8-8.2c0.6,1.7,1.1,3.2,1.6,4.7c0,0.4-0.1,0.9-0.5,1.2    c-3.9,4.4-7.7,8.8-11.6,13.3c-0.3,0.3-0.6,0.8-0.7,1.2l16.3-5.6c0.5,1.5,1,3,1.6,4.6l-7.5,2.6c-5,1.8-10.1,3.5-15.2,5.3    c-0.9,0.3-1.1,0-1.5-0.8c-1.5-2.8-0.8-4.8,1.4-6.9c3.5-3.5,6.7-7.4,10-11.2c0.3-0.4,0.6-0.7,0.9-1.1L412.2,63.8z"></path>		<path class="st0" d="M423.7,437.7h-25c0-1.6,0-3.3,0-4.9c0-0.3,0.6-0.7,1-0.9c5.2-3,10.4-6,15.6-8.9c0.4-0.2,0.8-0.5,1.1-0.9    h-17.6v-4.7h25c0,1.7,0,3.4,0,5.1c0,0.3-0.5,0.6-0.9,0.8c-5.1,2.9-10.3,5.9-15.4,8.8l-1.2,0.8h17.5L423.7,437.7z"></path>		<path class="st0" d="M413.1,147.9c-1,2.6-3.2,2.9-5.5,2.9c-1,0-2,0-3,0.1s-2.1,0.4-3.3,0.7c-0.1-0.2-0.1-0.4-0.1-0.6    c0-0.9,0-1.8,0-2.8c0-2.3-0.5-2.1,2.4-2.5c1.7-0.2,3.3-0.1,5-0.3c1.2,0,2.3-0.9,2.3-2.2v-0.1c0.2-2.1,0.1-4.3,0.2-6.5    c0-0.8-0.5-0.8-1-0.8c-2.5,0-5-0.1-7.4,0c-1.2,0-1.6-0.4-1.5-1.5c0.1-0.9,0-1.8,0-2.8c0-0.3,0.5-0.8,0.7-0.8c8.1,0,16.1,0,24.2,0    c0,0,0.1,0,0.2,0.1c0,0.6,0,1.2,0,1.9c-0.1,4.2,0,8.4-0.3,12.6c-0.1,2.5-1.8,4.7-4.2,5.5c-2.4,1-5.1,0.6-7.1-1.1    C414.2,149.3,413.6,148.6,413.1,147.9z M422.3,139.9L422.3,139.9c-0.1-1-0.1-2-0.1-3c0-0.6-0.2-0.9-0.8-0.9c-1.8,0-3.6,0-5.4,0    c-0.3,0-0.7,0.4-0.7,0.7c0,2.4,0,4.7,0.2,7.1c0.2,1.8,1.4,2.7,3.2,2.7c1.6,0.1,3.1-1,3.3-2.6C422.2,142.5,422.2,141.2,422.3,139.9    L422.3,139.9z"></path>		<path class="st0" d="M61.2,13.3c0.2-1.5,0.3-3,0.6-4.5c1.6-7.2,8.3-9.4,13.4-8.6c6.6,1.1,10.1,5.2,10.2,12.1c0.1,2-0.1,4-0.6,5.9    c-1.7,6.7-7.9,8.9-12.7,8.2C64.9,25.6,61.4,21.1,61.2,13.3z M80.5,12.5c-0.3-1.5-0.7-3-1.2-4.4c-1.6-3.2-5.5-4.5-8.7-2.9    c-1.1,0.6-2.1,1.5-2.7,2.6c-1.9,3.5-1.8,7.8,0.1,11.3c1.8,3.1,5.7,4.2,8.8,2.4c0.5-0.3,1-0.7,1.4-1.1    C80.1,18.4,80.3,15.9,80.5,12.5z"></path>		<path class="st0" d="M411.7,413.3c-2.5,0.2-5-0.3-7.3-1.5c-4.3-2.2-6.8-7.5-5.8-12.6c1.2-6.4,5.4-10,12.3-10c2.3,0,4.7,0.3,6.9,1    c4.9,1.7,7.6,6.6,7,12.2c-0.6,6.5-4.9,10.6-11.5,10.9C412.8,413.3,412.2,413.3,411.7,413.3z M411.1,408.4c1.7-0.2,2.8-0.3,4-0.5    c2.9-0.5,5.1-2.9,5.5-5.8s-1.2-5.7-4-6.8c-3.2-1.3-6.8-1.3-9.9,0.1c-2.4,0.9-3.9,3.3-3.9,5.8c-0.2,2.6,1.3,5,3.7,5.9    C408,407.7,409.5,408.1,411.1,408.4L411.1,408.4z"></path>		<path class="st0" d="M412,296.7c-3.8,0.1-7.4-0.6-10-3.6c-3.5-3.9-3.9-8.5-2.2-13.2c1.6-4.5,5.1-6.5,9.7-7.1c3-0.5,6.1-0.2,9,0.9    c4.3,1.7,6.5,5.1,6.8,9.6c0.1,1.9-0.1,3.8-0.6,5.7c-1.3,4.6-5.3,7.5-10.4,7.8C413.4,296.7,412.7,296.7,412,296.7z M412.3,291.7    c1.5-0.2,2.9-0.5,4.3-0.9c2.7-0.9,4.5-3.4,4.4-6.2c0-2.8-1.8-5.3-4.5-6.2c-2.6-0.9-5.5-1-8.1-0.2c-3.6,0.8-5.8,4.3-5.1,7.9    c0.5,2.5,2.5,4.5,5.1,5.1C409.7,291.4,411,291.6,412.3,291.7z"></path>		<path class="st0" d="M407.2,225.4v4.6c-3.3,1.4-4.9,5.1-3.6,8.5c0.2,0.4,0.4,0.8,0.6,1.1c0.7,1.2,2.2,1.7,3.5,1    c0.6-0.3,1-0.8,1.2-1.4c0.8-2.2,1.2-4.5,1.8-6.7c0.2-0.8,0.4-1.6,0.7-2.4c0.7-2.7,3.1-4.6,5.9-4.6c2.9-0.1,5.4,0.8,6.8,3.5    c2.1,3.8,2.1,8.4,0,12.2c-1.3,2.4-3.9,3.8-6.6,3.8v-4.8c3.4-1.5,4.6-4,3.5-7.5c-0.2-1.4-1.4-2.3-2.8-2.3s-2.1,0.6-2.6,2.3    c-0.6,2.2-1.1,4.3-1.6,6.5c-0.2,0.6-0.3,1.2-0.5,1.7c-0.8,2.6-2.3,4.5-5.2,4.8c-3.7,0.4-6.5-1-7.9-3.8c-1.9-3.9-2-8.5-0.2-12.4    C401.4,226.7,404.2,225,407.2,225.4z"></path>		<path class="st0" d="M407.2,248.7v4.8c-3.3,1.2-5.1,4.9-3.9,8.2c0.1,0.4,0.3,0.8,0.6,1.2c0.5,1,1.6,1.6,2.7,1.5c1,0,2-0.7,2.2-1.7    c0.7-2.3,1.3-4.7,1.9-7c0.1-0.4,0.2-0.8,0.3-1.2c1.1-3.8,3-5.3,6.5-5.3c3.7,0,6.3,1.8,7.3,5.3c1.1,3.3,0.9,7-0.8,10.1    c-1.3,2.5-4.2,4.1-6.6,3.8v-4.6c3.4-1.5,4.6-4.3,3.3-7.7c-0.3-1.2-1.5-2.1-2.7-2.1s-2.1,0.8-2.5,2.3c-0.6,2.4-1.2,4.7-1.8,7.1    c-0.1,0.4-0.2,0.8-0.3,1.1c-1.1,3.3-2.8,4.7-5.9,4.9c-3,0.4-6-1.2-7.3-4c-1.9-3.9-1.9-8.5,0-12.4    C401.5,250.1,404,248.9,407.2,248.7z"></path>		<path class="st0" d="M262.8,8.1c-1-3-4.3-4.6-7.2-3.5c-0.5,0.2-0.9,0.4-1.3,0.6c-0.9,0.5-1.3,1.5-1.2,2.5c0.1,1.1,0.9,2,2,2.2    c2.3,0.6,4.6,1.1,6.8,1.7c0.6,0.2,1.2,0.3,1.8,0.5c2.5,0.9,4.4,2.3,4.7,5.2c0.3,3.1-0.5,5.8-3.2,7.6c-2.4,1.5-5.3,2.1-8.1,1.7    c-1.4-0.1-2.7-0.4-4-0.8c-3.3-1.1-5.1-3.7-5.3-7.4c1.5,0,2.9,0,4.4,0c0.2,0.1,0.5,0.2,0.6,0.5c1.4,3,2.7,3.8,6,3.6    c1-0.1,2-0.3,3-0.7c1.1-0.4,1.8-1.4,1.8-2.6c0-1.1-0.8-2.1-1.9-2.3c-2.2-0.7-4.5-1.2-6.7-1.8c-0.7-0.2-1.5-0.4-2.2-0.6    c-2.5-0.8-4.2-2.4-4.5-5c-0.3-2.9,0.3-5.5,2.8-7.3c3.4-2.5,10.3-2.4,13.6,0.2c1.9,1.4,2.9,3.7,2.8,6L262.8,8.1z"></path>		<path class="st0" d="M294.1,25.8V0.9h18.5v4.2h-13.2v5.4c0.4,0,0.9,0.1,1.3,0.1c3.2,0,6.4,0,9.6,0c0.9,0,1.3,0.2,1.2,1.2    s0,2,0,3.2h-12.2v6.6c0.5,0,1,0.1,1.5,0.1c3.7,0,7.4,0,11,0c1,0,1.5,0.3,1.4,1.3c-0.1,0.9,0,1.9,0,2.9L294.1,25.8z"></path>		<path class="st0" d="M418.8,175.2c0-1.5,0-2.9,0-4.4c0-0.2,0.5-0.6,0.8-0.7c1.5-0.4,2.5-1.6,2.7-3.1c0.1-1.5,0-3.1-0.3-4.6    c-0.3-1.2-1.5-2-2.7-1.9s-2.1,0.9-2.3,2.1c-0.6,2.3-1.2,4.6-1.7,7c-0.1,0.6-0.3,1.2-0.5,1.7c-0.8,2.4-2.2,4.2-4.9,4.6    c-3.1,0.4-5.9-0.3-7.8-3.1c-2.4-3.6-2.4-10.4,0-14.1c1.4-2.2,3.9-3.4,6.5-3.4c0,1.5,0,3,0,4.4c0,0.2-0.4,0.5-0.7,0.6    c-1.9,0.4-3.2,2.1-3.2,4c-0.1,1.5,0,2.9,0.3,4.4c0.3,1.3,1.4,2.3,2.8,2.2c1.2,0,2.1-0.5,2.5-2.1c0.7-2.3,1.2-4.7,1.8-7.1    c0-0.2,0.1-0.4,0.2-0.6c1.2-4.1,3-5.5,7-5.5c3.4-0.1,6.4,2.4,7,5.7c0.8,2.8,0.7,5.8-0.3,8.6c-1,2.7-3.4,4.6-6.2,5    C419.4,175.2,419.1,175.2,418.8,175.2z"></path>		<path class="st0" d="M426.3,125.7h-4.1c0-0.5-0.1-1-0.1-1.4c0-3.6,0-7.1,0-10.7c0-0.9-0.2-1.3-1.2-1.3c-1.1,0.1-2.2,0.1-3.2,0    c-0.8,0-1.1,0.3-1.1,1.1c0,3.3,0,6.6,0,9.8c0,1-0.2,1.4-1.3,1.4c-3,0-3,0-3-3c0-2.8,0-5.5,0-8.3c0-0.8-0.2-1.2-1.1-1.1    c-1.5,0.1-3,0.1-4.6,0c-0.9,0-1.2,0.3-1.2,1.2c0,4,0,7.9,0,11.9c0,0.3,0,0.7-0.1,1h-4.1v-19h24.9L426.3,125.7z"></path>		<path class="st0" d="M399.4,334.1l6.9,2.5c5.7,2,11.4,4.1,17.1,6.1c0.8,0.1,1.3,0.9,1.1,1.6l0,0c-0.1,1.4,0,2.7,0,4.1    c0,0.4-0.3,0.8-0.6,1c-8,2.9-16,5.7-24.1,8.5c-0.1,0-0.2,0-0.4-0.1c0-1.6,0-3.3,0-5c0-0.2,0.4-0.5,0.7-0.6    c1.2-0.4,2.4-0.8,3.7-1.1c0.6-0.1,1-0.6,0.9-1.2c0-2.5,0-5,0-7.6c0.1-0.6-0.3-1.1-0.9-1.2c-1.2-0.4-2.3-0.8-3.5-1.2    c-0.6-0.2-0.9-0.4-0.9-1.1C399.5,337.2,399.4,335.7,399.4,334.1z M409,342.7v6.5l9.7-3v-0.3L409,342.7z"></path>		<path class="st0" d="M165.5,25.9c-1.7,0-3.3,0-5,0c-0.3,0-0.7-0.5-0.8-0.8c-0.4-1.2-0.8-2.3-1.1-3.5c-0.1-0.5-0.5-0.9-1.1-0.9    h-0.1c-2.5,0-5,0-7.5,0.1c-0.5,0.1-0.9,0.4-1.2,0.8c-0.5,1.1-0.9,2.3-1.2,3.5c-0.1,0.5-0.5,0.9-1.1,0.9h-0.1c-1.4-0.1-2.9,0-4.5,0    c0.1-0.5,0.2-0.9,0.3-1.3c2.7-7.6,5.4-15.3,8.1-22.9c0.1-0.6,0.7-1.1,1.4-1c1.4,0.1,2.8,0,4.2,0.1c0.5,0.1,0.9,0.3,1.1,0.7    c2.8,7.9,5.6,15.8,8.4,23.7C165.4,25.5,165.4,25.7,165.5,25.9z M156.9,16.4l-3.1-9.7h-0.4l-3.1,9.7H156.9z"></path>		<path class="st0" d="M245.6,25.9c-1.8,0-3.5,0-5.1,0c-0.3,0-0.6-0.4-0.7-0.7c-0.4-1.2-0.8-2.3-1.1-3.5c-0.1-0.6-0.6-1.1-1.2-1l0,0    c-2.5,0-5,0-7.5,0c-0.6-0.1-1.1,0.3-1.2,0.9c-0.3,1.2-0.8,2.3-1.2,3.5c-0.1,0.5-0.6,0.9-1.1,0.9h-0.1c-1.4-0.1-2.9,0-4.5,0    c0.1-0.4,0.2-0.8,0.3-1.1c2.7-7.7,5.5-15.3,8.2-23c0.1-0.7,0.8-1.2,1.5-1.1c1.4,0.1,2.7,0,4.1,0c0.4,0,0.8,0.3,1,0.7    C239.8,9.5,242.6,17.6,245.6,25.9z M233.8,6.6h-0.3l-3.2,9.8h6.5C235.8,13.1,234.8,9.8,233.8,6.6z"></path>		<path class="st0" d="M399.6,222.9c0-1.7,0-3.3,0-5c0-0.3,0.5-0.7,0.8-0.8c1.1-0.4,2.3-0.8,3.4-1.1c0.6-0.1,1-0.6,0.9-1.2l0,0    c0-2.5,0-5,0-7.6c0.1-0.6-0.3-1.1-0.9-1.2c-1.2-0.4-2.4-0.7-3.5-1.2c-0.3-0.1-0.8-0.5-0.8-0.8c-0.1-1.5,0-3.1,0-4.8l4.5,1.6    c6.5,2.3,12.9,4.6,19.4,6.9c0.8,0.1,1.4,0.9,1.2,1.8l0,0c-0.1,1.3,0,2.6-0.1,3.8c-0.1,0.5-0.3,0.9-0.7,1.1    c-7.9,2.8-15.9,5.6-23.8,8.4C400.1,222.8,399.9,222.8,399.6,222.9z M409.2,207.7v6.5l9.8-3.1v-0.3L409.2,207.7z"></path>		<path class="st0" d="M349.8,28.5c3.4-7.8,6.8-15.3,10.2-22.9c0.2,0,0.4,0.1,0.6,0.2c3.4,1.5,6.7,3,10,4.5c4.4,2,5.7,6,3.8,10.4    s-6.1,6-10.4,4.2c-1.9-0.8-3.8-1.7-5.8-2.6c-1.2,2.8-2.5,5.5-3.7,8.3L349.8,28.5z M363.1,11.4c-1,2.4-2,4.6-3,6.8    c0.1,0.1,0.3,0.3,0.4,0.3c1.5,0.7,3,1.4,4.5,2c2.2,0.8,3.6,0.2,4.7-1.9s0.6-3.6-1.5-4.7C366.6,13,364.9,12.3,363.1,11.4z"></path>		<path class="st0" d="M416.8,322.1c0-1.6,0-3.1,0-4.7c0-0.3,0.4-0.6,0.8-0.8c2.1-0.7,3.6-2.7,3.5-4.9c0.3-2.3-0.9-4.5-3-5.5    c-3.7-2-8.1-2-11.8,0c-2,1-3.2,3.3-2.8,5.5c0.1,2.2,1.6,4.2,3.7,4.8c0.6,0.1,1.1,0.7,1,1.3c0,0,0,0,0,0.1c0,1.3,0,2.6,0,4.1    c-2.7-0.4-5.2-1.8-7-4c-3.2-4-3.5-13.6,3.8-17c2.7-1.2,5.6-1.7,8.5-1.4c1.7,0.2,3.5,0.5,5.1,1.1c4.5,1.7,7.3,6.1,6.9,10.9    c-0.2,3.1-1,5.8-3.3,8C420.8,321.1,418.9,321.9,416.8,322.1z"></path>		<path class="st0" d="M163.1,0.8c2,0,3.8,0,5.6,0c0.3,0,0.7,0.4,0.9,0.8c1.5,3,2.9,6,4.4,9.1c0.1,0.2,0.3,0.5,0.5,1    c0.3-0.5,0.5-0.8,0.6-1.1c1.4-2.9,2.7-5.9,4-8.8c0.2-0.6,0.8-1,1.5-0.9c1.5,0,3,0,4.8,0c-0.2,0.5-0.4,0.9-0.6,1.3    c-2.4,4.5-4.8,9-7.2,13.5c-0.3,0.6-0.5,1.3-0.5,2c-0.1,2.4,0,4.8,0,7.2c0,0.9-0.3,1.2-1.2,1.1c-1.2-0.1-2.5,0-3.8,0    c-0.1-0.3-0.1-0.6-0.1-0.9c-0.1-1.1-0.1-2.2,0-3.4c0.3-3.4-0.6-6.9-2.5-9.7C167.2,8.4,165.3,4.7,163.1,0.8z"></path>		<path class="st0" d="M419.6,369.6h-20.8v-5.2h1.4c6,0,12.1,0,18.1,0c1,0,1.3-0.3,1.3-1.3c-0.1-2.1,0-4.1,0-6.4    c1.3,0,2.5-0.1,3.7,0.1c0.2,0,0.6,0.7,0.6,1.1c0,4.6,0,9.3,0,13.9c0,1.5,0,3,0,4.4c0,0.7-0.2,1-1,1c-1.1,0-2.1,0-3.3,0    L419.6,369.6z"></path>		<path class="st0" d="M283.2,25.9h-4.4c-0.9,0-0.7-0.7-0.7-1.2c0-3.1,0-6.3,0-9.5c0-2.9,0-5.8,0-8.6c0-1.2-0.2-1.7-1.5-1.6    c-1.7,0.1-3.4,0-5,0c-0.9,0-1.1-0.3-1.2-1.2c0-3.1-0.1-3.1,3-3.1h17.3V5c-2.1,0-4.1,0.1-6.1,0c-1.2,0-1.5,0.4-1.5,1.5    c0,5.9,0,11.8,0,17.8L283.2,25.9z"></path>		<path class="st0" d="M424,380.2v5c-0.4,0-0.8,0.1-1.1,0.1c-7.6,0-15.2,0-22.8,0c-1,0-1.4-0.2-1.3-1.3s0-2,0-3c0-0.6,0.2-1,0.9-1    c8,0,16,0,24,0C423.8,380.1,423.9,380.1,424,380.2z"></path>		<path class="st0" d="M409.2,43.1l2.8,4.4l-21.1,13.7c-0.9-1.5-1.9-2.8-2.8-4.3L409.2,43.1z"></path>		<path class="st0" d="M399.4,331.3c0-1.6,0-3,0-4.5c0-0.2,0.4-0.5,0.7-0.6c0.3-0.1,0.6-0.1,0.8,0H423c1.6,0,1.7,0,1.6,1.6    c0,1.1,0.3,2.7-0.2,3.2s-2.2,0.3-3.3,0.3c-6.7,0-13.3,0-20,0H399.4z"></path>		<path class="st0" d="M421.5,183.7c-1.2,0-2.4,0-3.6,0c-0.7,0-1-0.2-1-0.9c0.1-2.7-0.3-2.3,2.2-2.3c2,0,4,0,6,0    c0.9,0,1.3,0.3,1.2,1.2c0,0.2,0,0.4,0,0.6c0.2,1.1-0.3,1.6-1.5,1.5S422.6,183.7,421.5,183.7z"></path>		<path class="st0" d="M156.9,16.4h-6.5l3.1-9.7h0.4L156.9,16.4z"></path>	</g>	<path class="st0" d="M465.2,0c-16.5,0-30,13.5-30,30s13.5,30,30,30s30-13.5,30-30S481.9,0,465.2,0 M465.2,54c-13.2,0-24-10.8-24-24   s10.8-24,24-24s24,10.8,24,24S478.4,54,465.2,54 M466,33.8h-4.4v9.8h-5.4V17.1h9.8c3.1,0,5.6,0.7,7.2,2.1c1.7,1.4,2.6,3.3,2.6,5.9   c0,1.8-0.4,3.3-1.2,4.5c-0.8,1.2-1.9,2.1-3.6,2.8l5.7,10.8v0.3h-5.8L466,33.8 M461.6,29.4h4.4c1.4,0,2.4-0.3,3.1-1.1   c0.8-0.7,1.1-1.6,1.1-2.8s-0.3-2.2-1.1-2.8c-0.8-0.8-1.8-1.1-3.3-1.1h-4.4C461.6,21.6,461.6,29.4,461.6,29.4z"></path></g></svg>